# xmcd
#
# Track frame offsets:
#	150
#	12105
#	27890
#	41516
#	53606
#	65632
#	78319
#	94719
#
# Disc length: 1443 seconds
#
# Revision: 1
# Processed by: cddbd v1.5.2PL0 Copyright (c) Steve Scherf et al.
# Submitted via: audiograbber 1.83.01
#
DISCID=5605a108
DTITLE=Kerstin_f - Auf der Strasse zu Hause
DYEAR=2013
DGENRE=Country
TTITLE0=Auf der Strasse zu Hause
TTITLE1=Nur noch ein Tour
TTITLE2=Jonny, schalt den Motor aus
TTITLE3=Highway No.1
TTITLE4=Meine Liebe
TTITLE5=Am Kilometer 110
TTITLE6=Truckerfrauen weinen heimlich
TTITLE7=Home on the road
EXTD=
EXTT0=
EXTT1=
EXTT2=
EXTT3=
EXTT4=
EXTT5=
EXTT6=
EXTT7=
PLAYORDER=
